<svg xmlns="http://www.w3.org/2000/svg" xmlns:xlink="http://www.w3.org/1999/xlink" version="1.1" x="0px" y="0px" viewBox="0 0 100 125" enable-background="new 0 0 100 100" xml:space="preserve"><path d="M94.516,34.932c-2.224-2.799-11.498-2.27-11.498-2.27c0.156-1.033,0.238-2.092,0.238-3.169  c0-11.558-9.37-20.927-20.927-20.927c-11.558,0-20.927,9.369-20.927,20.927c0,7.064,3.504,13.307,8.865,17.096  C12.873,53.417,6.961,25.175,5.292,41.78C1.678,77.736,32.416,91.434,51.866,91.434c9.305,0,19.729-2.945,26.146-8.449  c10.271-8.813,12.322-26.15,1.221-37.056C91.246,44.308,96.738,37.73,94.516,34.932z M44.831,74.294  c-6.718-0.923-15.95-5.627-17.985-18.537c18.322,5.117,30.964-4.536,34.583,6.187C65.049,72.667,51.549,75.218,44.831,74.294z   M72.21,31.126c-1.918,0-3.474-1.554-3.474-3.472s1.556-3.472,3.474-3.472c1.917,0,3.472,1.555,3.472,3.472  S74.127,31.126,72.21,31.126z"/></svg>